HIERARCHY
ROOT SpineBase
{
  OFFSET 0.000000 0.000000 0.000000
  CHANNELS 6 Xposition Yposition Zposition Zrotation Xrotation Yrotation
  JOINT SpineMid
  {
    OFFSET 0.000000 29.406648 -0.000000
    CHANNELS 3 Zrotation Xrotation Yrotation
    JOINT SpineShoulder
    {
      OFFSET 0.175847 21.862219 -0.683403
      CHANNELS 3 Zrotation Xrotation Yrotation
      JOINT Neck
      {
        OFFSET 0.105789 7.238626 -0.513396
        CHANNELS 3 Zrotation Xrotation Yrotation
        JOINT Head
        {
          OFFSET -4.062183 13.386608 -1.159150
          CHANNELS 3 Zrotation Xrotation Yrotation
          End Site
          {
            OFFSET 0 0 0
          }
        }
      }
      JOINT ShoulderLeft
      {
        OFFSET -15.838903 -4.589253 6.557798
        CHANNELS 3 Zrotation Xrotation Yrotation
        JOINT ElbowLeft
        {
          OFFSET -0.917537 -26.552849 2.220936
          CHANNELS 3 Zrotation Xrotation Yrotation
          JOINT WristLeft
          {
            OFFSET 0.474559 -19.190075 -5.754687
            CHANNELS 3 Zrotation Xrotation Yrotation
            JOINT HandLeft
            {
              OFFSET 1.073472 -3.717012 -0.945614
              CHANNELS 3 Zrotation Xrotation Yrotation
              JOINT HandTipLeft
              {
                OFFSET 1.302771 -7.032887 -0.861421
                CHANNELS 3 Zrotation Xrotation Yrotation
                End Site
                {
                  OFFSET 0 0 0
                }
              }
              JOINT ThumbLeft
              {
                OFFSET -2.427883 -1.410622 -2.170388
                CHANNELS 3 Zrotation Xrotation Yrotation
                End Site
                {
                  OFFSET 0 0 0
                }
              }
            }
          }
        }
      }
      JOINT ShoulderRight
      {
        OFFSET 14.161469 -3.025154 -7.865692
        CHANNELS 3 Zrotation Xrotation Yrotation
        JOINT ElbowRight
        {
          OFFSET 5.888007 -24.654177 -1.773587
          CHANNELS 3 Zrotation Xrotation Yrotation
          JOINT WristRight
          {
            OFFSET -1.762657 -19.280479 -5.103131
            CHANNELS 3 Zrotation Xrotation Yrotation
            JOINT HandRight
            {
              OFFSET -1.631143 -6.689818 -0.892078
              CHANNELS 3 Zrotation Xrotation Yrotation
              JOINT HandTipRight
              {
                OFFSET -0.908541 -7.152326 0.277463
                CHANNELS 3 Zrotation Xrotation Yrotation
                End Site
                {
                  OFFSET 0 0 0
                }
              }
              JOINT ThumbRight
              {
                OFFSET -3.175101 0.233410 -1.213915
                CHANNELS 3 Zrotation Xrotation Yrotation
                End Site
                {
                  OFFSET 0 0 0
                }
              }
            }
          }
        }
      }
    }
  }
  JOINT HipLeft
  {
    OFFSET -6.467079 0.353843 -0.679908
    CHANNELS 3 Zrotation Xrotation Yrotation
    JOINT KneeLeft
    {
      OFFSET 6.373949 -30.282114 6.956906
      CHANNELS 3 Zrotation Xrotation Yrotation
      JOINT AnkleLeft
      {
        OFFSET 6.645624 -30.337978 3.495162
        CHANNELS 3 Zrotation Xrotation Yrotation
        JOINT FootLeft
        {
          OFFSET -0.868726 -5.324004 -9.437417
          CHANNELS 3 Zrotation Xrotation Yrotation
          End Site
          {
            OFFSET 0 0 0
          }
        }
      }
    }
  }
  JOINT HipRight
  {
    OFFSET 7.062582 1.387207 -5.914129
    CHANNELS 3 Zrotation Xrotation Yrotation
    JOINT KneeRight
    {
      OFFSET 8.006043 -26.483835 2.918343
      CHANNELS 3 Zrotation Xrotation Yrotation
      JOINT AnkleRight
      {
        OFFSET 3.015101 -34.613624 7.338436
        CHANNELS 3 Zrotation Xrotation Yrotation
        JOINT FootRight
        {
          OFFSET -2.944493 -7.660057 -4.101868
          CHANNELS 3 Zrotation Xrotation Yrotation
          End Site
          {
            OFFSET 0 0 0
          }
        }
      }
    }
  }
}
MOTION
Frames: 13
Frame Time: 0.033333
-25.447580 67.378152 340.249747 3.866038 -5.676055 13.662229 1.233660 -0.530693 -13.313331 -1.098221 -0.587000 0.251776 -4.986893 11.925108 1.567615 0.000000 0.000000 0.000000 -6.685938 2.504166 -0.025396 39.221083 30.160459 -20.148004 -16.376976 -24.626226 5.179721 4.665425 -15.466820 0.388590 0.000000 0.000000 0.000000 0.000000 0.000000 0.000000 -104.771267 48.666197 91.313890 9.742670 -4.580725 -15.405462 -0.706123 8.346045 -16.632570 -41.731579 19.632757 -32.380563 0.000000 0.000000 0.000000 0.000000 0.000000 0.000000 -15.648204 -0.219260 -17.241704 11.930872 10.794000 3.690270 10.088653 -20.358683 -22.136822 0.000000 0.000000 0.000000 -13.506837 7.372654 -13.705494 12.545836 -0.415719 1.655521 6.718152 -3.794208 -2.267436 0.000000 0.000000 0.000000
-26.265550 67.305002 340.372679 2.685307 -5.879865 13.952327 1.780725 -0.592871 -13.707089 -0.885618 -0.502654 0.226616 -4.391200 11.928628 1.550966 0.000000 0.000000 0.000000 -6.272605 2.536863 -0.017566 39.200456 30.127523 -20.127124 -16.286034 -26.695550 4.900558 2.243180 -12.733346 0.480704 0.000000 0.000000 0.000000 0.000000 0.000000 0.000000 -104.178541 48.696761 91.133843 9.811514 -4.575238 -15.327996 -1.310245 9.007699 -16.833891 -44.152481 16.798263 -38.699389 0.000000 0.000000 0.000000 0.000000 0.000000 0.000000 -12.431190 -0.266483 -17.215954 9.841041 10.042844 3.344500 10.146927 -21.331529 -21.898530 0.000000 0.000000 0.000000 -10.768635 7.220799 -14.093698 10.883561 -0.747599 1.435931 3.663819 0.336184 -2.192559 0.000000 0.000000 0.000000
-26.580366 67.297798 340.344721 2.252946 -5.888131 14.308547 1.811392 -0.624637 -14.099283 -0.821578 -0.472179 0.209723 -4.075028 11.919524 1.557788 0.000000 0.000000 0.000000 -5.946802 2.521885 -0.014025 39.183692 30.099303 -20.109700 -16.258278 -27.315155 4.814152 0.793848 -12.271840 0.520131 0.000000 0.000000 0.000000 0.000000 0.000000 0.000000 -103.898152 48.679494 91.176541 10.155925 -4.897167 -15.196621 -2.381921 9.936746 -17.207823 -42.554508 15.401857 -38.395859 0.000000 0.000000 0.000000 0.000000 0.000000 0.000000 -11.108663 -0.323255 -17.432575 8.781092 9.674964 3.180732 8.320078 -19.718529 -16.907399 0.000000 0.000000 0.000000 -9.642984 7.111258 -14.496756 10.095515 -0.971147 1.320420 -1.574780 7.166529 -1.610822 0.000000 0.000000 0.000000
-26.389727 67.327951 340.195932 2.530455 -5.682693 14.306946 1.341420 -0.635971 -14.067434 -0.777459 -0.467219 0.201737 -4.062220 11.800299 1.555453 0.000000 0.000000 0.000000 -5.816308 2.438424 -0.017166 39.173456 30.077240 -20.097530 -16.380076 -27.457022 4.759594 1.821354 -12.709818 0.497962 0.000000 0.000000 0.000000 0.000000 0.000000 0.000000 -104.705407 48.415007 92.089694 10.756211 -6.053906 -15.198929 -2.919203 10.114107 -17.359319 -40.444837 15.781678 -35.022394 0.000000 0.000000 0.000000 0.000000 0.000000 0.000000 -11.766507 -0.540979 -17.527079 8.236490 9.569594 3.236149 8.905950 -19.536534 -16.111980 0.000000 0.000000 0.000000 -10.157010 7.044082 -14.479445 10.244492 -1.131618 1.313375 -7.916989 15.066663 -0.185478 0.000000 0.000000 0.000000
-26.196180 67.384719 340.143714 2.712436 -5.619833 14.626931 1.107914 -0.547736 -14.372309 -0.745931 -0.456509 0.197887 -4.124466 11.630910 1.540774 0.000000 0.000000 0.000000 -5.784241 2.330505 -0.023060 39.167932 30.061107 -20.089529 -16.636397 -27.027312 4.755238 -0.317297 -13.275671 0.325028 0.000000 0.000000 0.000000 0.000000 0.000000 0.000000 -105.061315 48.337544 92.482935 11.171067 -6.852865 -15.174232 -3.903963 10.579958 -17.688873 -40.198741 13.118046 -36.974933 0.000000 0.000000 0.000000 0.000000 0.000000 0.000000 -12.117485 -0.347233 -17.827623 8.428819 9.478888 3.250185 8.878724 -19.480506 -16.047314 0.000000 0.000000 0.000000 -10.484046 7.247375 -14.735068 10.323225 -1.387830 1.271338 -14.178656 21.974211 2.116821 0.000000 0.000000 0.000000
-25.858211 67.444234 340.118250 3.058955 -5.592659 15.456797 0.849142 -0.424472 -15.173848 -0.712563 -0.440511 0.199688 -4.379530 11.526883 1.548830 0.000000 0.000000 0.000000 -5.885342 2.221554 -0.031141 39.164835 30.048276 -20.083863 -16.734808 -27.279220 4.692215 -1.321460 -11.633030 0.433912 0.000000 0.000000 0.000000 0.000000 0.000000 0.000000 -105.660717 48.143374 92.902464 11.758096 -7.717572 -15.041092 -5.129538 10.782894 -18.159313 -37.266345 11.974326 -33.934211 0.000000 0.000000 0.000000 0.000000 0.000000 0.000000 -12.898404 0.205126 -18.616308 8.937956 9.319814 3.300151 9.274265 -18.928160 -16.958621 0.000000 0.000000 0.000000 -11.220932 7.620064 -15.487462 10.705802 -1.512146 1.278565 -21.898325 28.975763 5.855410 0.000000 0.000000 0.000000
-25.341264 67.499642 340.104135 3.618542 -5.580248 16.542285 0.502190 -0.260529 -16.212489 -0.667524 -0.397326 0.205647 -4.650496 11.407686 1.546755 0.000000 0.000000 0.000000 -6.112903 2.092957 -0.042830 39.160634 30.036526 -20.077818 -17.093034 -27.334369 4.591651 -0.395555 -12.544399 0.302714 0.000000 0.000000 0.000000 0.000000 0.000000 0.000000 -106.365263 47.765750 93.106423 12.821535 -8.658236 -14.569133 -6.658000 11.435458 -18.692374 -32.690556 11.751656 -28.531576 0.000000 0.000000 0.000000 0.000000 0.000000 0.000000 -14.430708 0.984135 -19.714606 9.992486 9.297162 3.448050 9.559735 -18.478977 -17.603444 0.000000 0.000000 0.000000 -12.458991 8.156601 -16.464796 11.449773 -1.511780 1.342297 -25.284517 31.703155 7.772422 0.000000 0.000000 0.000000
-24.954751 67.494496 340.088181 3.928375 -5.560970 17.457747 0.379181 -0.128162 -17.105794 -0.616681 -0.347525 0.209807 -4.784157 11.203389 1.519617 0.000000 0.000000 0.000000 -6.318861 1.928145 -0.056935 39.157450 30.026590 -20.072685 -17.338371 -27.117968 4.561257 0.605648 -12.628184 0.246756 0.000000 0.000000 0.000000 0.000000 0.000000 0.000000 -106.558363 47.848750 93.121987 12.732325 -8.904568 -14.709271 -7.705835 12.167510 -19.050953 -21.942792 9.694153 -17.807043 0.000000 0.000000 0.000000 0.000000 0.000000 0.000000 -15.467887 1.533237 -20.656711 10.768795 9.343177 3.564736 9.653491 -18.144300 -17.805006 0.000000 0.000000 0.000000 -13.300820 8.520509 -17.329117 12.024183 -1.458739 1.401245 -25.066406 31.835888 7.700743 0.000000 0.000000 0.000000
-24.638359 67.475741 340.064559 4.155249 -5.460281 17.857851 0.305470 -0.000909 -17.494999 -0.590114 -0.285808 0.210202 -4.698640 10.645054 1.399170 0.000000 0.000000 0.000000 -6.465236 1.666426 -0.076711 39.153327 30.018234 -20.067297 -17.511818 -26.948388 4.542330 0.809971 -12.441472 0.214085 0.000000 0.000000 0.000000 0.000000 0.000000 0.000000 -106.220517 48.287335 92.855330 11.789784 -8.671834 -15.307674 -8.803520 12.572338 -19.501023 -17.812166 8.858896 -14.302726 0.000000 0.000000 0.000000 0.000000 0.000000 0.000000 -16.395410 1.699296 -21.157714 11.427785 9.532970 3.680974 9.612076 -18.167140 -17.711081 0.000000 0.000000 0.000000 -14.031666 8.714901 -17.694333 12.511326 -1.481790 1.440531 -21.338759 29.311090 5.715813 0.000000 0.000000 0.000000
-24.592498 67.413488 340.127666 4.038108 -5.439923 18.444150 0.422425 0.098089 -18.098705 -0.538299 -0.168663 0.202635 -4.456540 10.029253 1.268029 0.000000 0.000000 0.000000 -6.482082 1.395094 -0.094726 39.148529 30.011419 -20.061881 -17.679167 -26.376062 4.588092 3.676697 -12.525238 0.210179 0.000000 0.000000 0.000000 0.000000 0.000000 0.000000 -104.887289 49.079740 91.843077 9.870096 -7.188136 -16.204800 -9.572387 12.820905 -19.972047 -11.893276 11.345938 -6.689011 0.000000 0.000000 0.000000 0.000000 0.000000 0.000000 -16.388917 1.908293 -21.748912 11.568052 9.490297 3.695695 9.056283 -18.896933 -16.451763 0.000000 0.000000 0.000000 -13.826982 8.828730 -18.285160 12.483498 -1.538453 1.427398 -13.448355 22.422775 2.021929 0.000000 0.000000 0.000000
-24.865824 67.336962 340.231801 3.594526 -5.342257 18.614622 0.608098 0.133414 -18.313330 -0.436849 -0.067726 0.187265 -3.988431 9.143634 1.067987 0.000000 0.000000 0.000000 -6.309118 1.099886 -0.109391 39.144063 30.005449 -20.056862 -17.677072 -25.924631 4.657399 5.593999 -12.848819 0.241704 0.000000 0.000000 0.000000 0.000000 0.000000 0.000000 -102.930046 50.207404 90.653915 6.972402 -5.170763 -17.578818 -10.772082 13.183801 -20.658565 -15.767146 13.194253 -9.594677 0.000000 0.000000 0.000000 0.000000 0.000000 0.000000 -15.304906 1.658027 -21.885430 10.917443 9.286443 3.578949 8.845686 -19.073997 -15.964996 0.000000 0.000000 0.000000 -12.833822 8.463205 -18.576816 11.895344 -1.469886 1.379342 -7.042624 15.852543 -0.364100 0.000000 0.000000 0.000000
-25.415575 67.210667 340.569421 2.876780 -5.408075 19.593119 0.866684 0.167061 -19.352254 -0.282772 0.071756 0.165196 -3.359368 8.167256 0.826320 0.000000 0.000000 0.000000 -5.977346 0.893746 -0.113179 39.140119 30.000646 -20.052516 -17.816619 -25.163122 4.741731 6.884034 -13.858928 0.225819 0.000000 0.000000 0.000000 0.000000 0.000000 0.000000 -100.555283 51.406810 89.294863 3.616617 -2.638610 -19.017595 -11.993802 13.549818 -21.407589 -23.139883 14.394109 -17.480078 0.000000 0.000000 0.000000 0.000000 0.000000 0.000000 -13.224088 2.011107 -22.580070 9.808424 8.472990 3.312846 9.937767 -21.879971 -18.677053 0.000000 0.000000 0.000000 -10.741496 8.364625 -19.602479 10.702067 -1.664448 1.222364 -0.761741 8.649936 -1.995155 0.000000 0.000000 0.000000
-25.805612 67.099341 340.941327 2.482983 -5.435236 20.959793 0.830481 0.181066 -20.747453 -0.179873 0.179364 0.146387 -2.854171 7.417828 0.633640 0.000000 0.000000 0.000000 -5.639687 0.790882 -0.109633 39.137134 29.998489 -20.049604 -18.043767 -24.337259 4.818348 7.588455 -14.588892 0.193072 0.000000 0.000000 0.000000 0.000000 0.000000 0.000000 -98.260320 52.451578 87.960929 0.507555 0.031955 -20.151341 -13.292206 13.729707 -22.308258 -30.702094 13.921732 -29.265452 0.000000 0.000000 0.000000 0.000000 0.000000 0.000000 -11.819425 2.741728 -23.645384 9.158289 7.552513 3.088730 9.312453 -21.734356 -17.139544 0.000000 0.000000 0.000000 -9.054768 8.425010 -20.952019 9.614626 -1.902890 1.053721 4.526894 2.010557 -2.628376 0.000000 0.000000 0.000000
